:SAMPLES-PER-SECOND 30
:FULLY-SPECIFIED
:DEGREES
734
root  7.16314 30.8862 6.83092 -162.459 -33.3071 -167.891
RightUpLeg  -66.5333 -4.30217 14.1456
RightLeg  75.3721 -1.96445 -6.16702
RightFoot  2.04519 0.0145172 -0.237745
RightToes  -26.918 -0.123284 -0.229985
Spine  4.52134 -3.20137 -6.09443
Spine1  9.56874 -6.69821 -10.639
HEad  -73.4588 -2.51495 -4.83332
LeftShoulder1  -1.94126e-019 -3.10601e-018 -2.51263e-017
LeftArm  -26.3661 -18.189 -51.3874
LeftForeArm  26.3547 -40.9425 -7.89599
LeftHand  -0.678545 0.107893 14.9698
RightShoulder  -4.96962e-017 0 -2.36833e-017
RightArm  -24.6461 -29.2852 74.7399
RightForeArm  51.6684 22.377 2.21571
RightHand  -0.483089 -0.305841 -11.0489
LeftUpLeg  -29.0573 -0.184619 11.9932
LeftLeg  50.3979 12.7591 13.1884
LeftFoot  -27.2401 -2.10283 -8.50165
LeftToes  -24.0807 1.31378e-006 1.14341e-007
735
root  5.44236 30.8946 5.21143 -162.558 -31.5971 -166.174
RightUpLeg  -69.7805 -2.20103 17.3647
RightLeg  64.6426 -1.37361 -2.5936
RightFoot  2.42019 0.0141737 -0.11709
RightToes  -27.4132 -0.126519 -0.233591
Spine  4.49849 -3.59629 -5.11713
Spine1  9.41068 -7.56914 -8.8004
HEad  -71.7262 1.97528 -5.64329
LeftShoulder1  -1.94126e-019 -3.10601e-018 -2.51263e-017
LeftArm  -26.3732 -15.3646 -55.4567
LeftForeArm  25.3354 -45.6822 -9.58121
LeftHand  -0.68285 -0.279451 14.0678
RightShoulder  -4.96962e-017 0 -2.36833e-017
RightArm  -30.3729 -30.6708 69.7907
RightForeArm  54.0574 18.7581 2.05193
RightHand  -0.350837 -0.68481 -8.63062
LeftUpLeg  -23.0647 -0.391602 11.8318
LeftLeg  46.1339 14.7342 13.0901
LeftFoot  -27.609 -2.32821 -9.29379
LeftToes  -23.3602 1.31378e-006 1.14341e-007
736
root  3.40927 30.6687 3.40012 -163.342 -29.6768 -165.805
RightUpLeg  -69.0244 -0.989685 18.5422
RightLeg  52.5327 0.695142 0.738134
RightFoot  3.79386 0.0149387 0.0806466
RightToes  -33.4796 -0.168602 -0.275408
Spine  4.71702 -4.15688 -4.27315
Spine1  9.74142 -8.71948 -7.24558
HEad  -70.9139 6.80161 -6.08736
LeftShoulder1  -1.94126e-019 -3.10601e-018 -2.51263e-017
LeftArm  -25.9709 -11.2186 -59.5435
LeftForeArm  27.0536 -47.6938 -10.2322
LeftHand  -0.734979 -1.67502 12.2429
RightShoulder  -4.96962e-017 0 -2.36833e-017
RightArm  -39.1199 -30.935 64.4368
RightForeArm  55.2507 16.2703 2.32121
RightHand  -0.194547 -2.59055 -7.65659
LeftUpLeg  -16.5878 -1.08757 10.0338
LeftLeg  44.5478 15.9691 13.3818
LeftFoot  -24.4117 -1.9411 -8.79453
LeftToes  -31.7292 1.31378e-006 1.14341e-007
737
root  1.13855 30.2204 1.43572 -164.547 -29.118 -166.194
RightUpLeg  -64.87 -1.10498 17.1473
RightLeg  40.4094 3.44638 2.54336
RightFoot  4.24878 0.00625018 0.344129
RightToes  -37.8867 -0.201826 -0.302876
Spine  5.01225 -4.99342 -3.06187
Spine1  10.1911 -10.4058 -5.0488
HEad  -69.9855 10.7844 -7.38635
LeftShoulder1  -1.94126e-019 -3.10601e-018 -2.51263e-017
LeftArm  -25.2921 -7.16592 -64.5447
LeftForeArm  29.8134 -46.4278 -9.54481
LeftHand  -0.757764 -3.54944 10.0861
RightShoulder  -4.96962e-017 0 -2.36833e-017
RightArm  -46.4959 -29.7577 57.9967
RightForeArm  56.5666 12.8726 2.17401
RightHand  -0.105359 -4.26706 -9.22123
LeftUpLeg  -12.6744 -2.70419 7.46858
LeftLeg  48.8259 15.2628 14.8113
LeftFoot  -15.8876 -0.85252 -5.94224
LeftToes  -56.2318 1.31378e-006 1.14341e-007
738
root  -1.13189 29.5712 -0.522509 -165.472 -29.851 -166.054
RightUpLeg  -62.1321 -2.73173 16.1908
RightLeg  38.6271 2.53482 1.74836
RightFoot  11.6644 -0.00611179 0.582376
RightToes  -32.1602 -0.159076 -0.266696
Spine  4.8974 -5.48004 -1.19518
Spine1  9.8003 -11.4723 -1.50304
HEad  -68.8879 12.1378 -8.50946
LeftShoulder1  -1.94126e-019 -3.10601e-018 -2.51263e-017
LeftArm  -23.7377 -4.45788 -71.1148
LeftForeArm  29.7019 -42.7984 -8.29572
LeftHand  -0.685412 -4.2869 8.49665
RightShoulder  -4.96962e-017 0 -2.36833e-017
RightArm  -49.3706 -28.7155 50.4542
RightForeArm  54.1137 7.92879 1.36246
RightHand  0.0296365 -5.9756 -10.214
LeftUpLeg  -13.6024 -0.680854 6.69208
LeftLeg  58.5426 10.2867 14.2248
LeftFoot  -2.35228 -0.0181272 -0.721361
LeftToes  -71.6917 1.31378e-006 1.14341e-007
739
root  -3.20799 29.0185 -2.22659 -167.666 -29.7195 -164.61
RightUpLeg  -63.7877 -1.59046 13.6419
RightLeg  52.2985 1.17116 1.27246
RightFoot  4.56917 0.0225725 -0.0255218
RightToes  -27.4775 -0.126942 -0.234057
Spine  5.0625 -5.37064 0.941396
Spine1  9.83699 -11.6867 2.93095
HEad  -68.5849 11.5404 -8.2598
LeftShoulder1  -1.94126e-019 -3.10601e-018 -2.51263e-017
LeftArm  -21.6547 -2.40146 -77.1694
LeftForeArm  28.6706 -37.8417 -6.84745
LeftHand  -0.74874 -4.65252 8.93714
RightShoulder  -4.96962e-017 0 -2.36833e-017
RightArm  -53.5477 -26.5933 44.3199
RightForeArm  51.915 6.84916 1.18928
RightHand  0.101383 -6.68216 -11.1933
LeftUpLeg  -17.2798 4.54595 7.86511
LeftLeg  71.5157 5.05734 12.189
LeftFoot  11.1859 -0.220383 2.41176
LeftToes  -53.4343 1.31378e-006 1.14341e-007
740
root  -5.23104 28.7144 -3.78456 -168.485 -26.6267 -164.14
RightUpLeg  -61.1581 -2.04491 13.3058
RightLeg  56.7423 2.44234 3.1697
RightFoot  -1.39748 -0.009841 -0.347907
RightToes  -27.3231 -0.125928 -0.232937
Spine  5.48298 -4.58029 2.13897
Spine1  10.5777 -10.2237 5.20455
HEad  -70.1309 12.1538 -7.78725
LeftShoulder1  -1.94126e-019 -3.10601e-018 -2.51263e-017
LeftArm  -22.2177 -0.241528 -80.7465
LeftForeArm  27.7794 -35.2619 -6.19978
LeftHand  -0.79001 -3.88474 10.1435
RightShoulder  -4.96962e-017 0 -2.36833e-017
RightArm  -56.2271 -22.3558 42.777
RightForeArm  50.1471 7.40502 1.29487
RightHand  0.259445 -7.95999 -12.8325
LeftUpLeg  -22.6436 12.2799 7.89996
LeftLeg  83.1436 1.78906 9.48212
LeftFoot  11.6553 -0.156053 1.69042
LeftToes  -34.3356 1.31378e-006 1.14341e-007
741
root  -7.31865 28.8034 -5.09859 -167.052 -25.5975 -166.431
RightUpLeg  -59.1244 -3.1109 9.10854
RightLeg  59.2511 3.04914 4.35101
RightFoot  -5.1705 -0.0519937 -0.653498
RightToes  -32.4109 -0.16087 -0.268368
Spine  5.42497 -4.14328 2.05674
Spine1  10.5777 -9.09545 4.74538
HEad  -70.1963 12.1883 -5.59823
LeftShoulder1  -1.94126e-019 -3.10601e-018 -2.51263e-017
LeftArm  -24.5091 3.19001 -82.3275
LeftForeArm  27.1044 -34.6008 -6.07473
LeftHand  -0.781595 -2.02226 12.4204
RightShoulder  -4.96962e-017 0 -2.36833e-017
RightArm  -53.9035 -19.847 45.935
RightForeArm  45.1199 10.4751 1.59861
RightHand  0.276867 -7.89558 -13.8808
LeftUpLeg  -30.5363 16.876 4.66815
LeftLeg  90.5342 0.529294 9.38527
LeftFoot  7.38956 -0.0553558 1.01874
LeftToes  -34.2148 1.31378e-006 1.14341e-007
742
root  -9.28296 29.3353 -6.25071 -166.019 -23.7522 -167.191
RightUpLeg  -55.3979 -3.81192 6.58999
RightLeg  57.2887 4.13346 5.51002
RightFoot  -6.19507 -0.0744233 -0.882385
RightToes  -36.0557 -0.187766 -0.291775
Spine  5.2432 -2.70322 1.99648
Spine1  10.2665 -6.03423 4.51143
HEad  -69.6308 10.1614 -3.69778
LeftShoulder1  -1.94126e-019 -3.10601e-018 -2.51263e-017
LeftArm  -24.9748 6.67637 -82.7237
LeftForeArm  23.3449 -33.764 -6.0816
LeftHand  -0.682272 -1.0604 12.4154
RightShoulder  -4.96962e-017 0 -2.36833e-017
RightArm  -46.9592 -18.9605 50.2207
RightForeArm  38.9211 14.2252 1.59497
RightHand  0.00524102 -5.59265 -13.0777
LeftUpLeg  -39.2903 21.4135 2.70449
LeftLeg  93.4693 0.0563768 12.6727
LeftFoot  4.54519 -0.0275659 0.856148
LeftToes  -31.1514 1.31378e-006 1.14341e-007
743
root  -11.3362 30.128 -7.32665 -165.351 -22.9122 -167.913
RightUpLeg  -49.895 -5.42707 3.80301
RightLeg  52.2571 5.88002 6.56891
RightFoot  -5.83072 -0.0737501 -0.962472
RightToes  -39.8162 -0.217016 -0.314081
Spine  5.10271 -1.3215 1.76236
Spine1  10.0442 -3.03009 3.96339
HEad  -68.8551 7.46028 -3.19242
LeftShoulder1  -1.94126e-019 -3.10601e-018 -2.51263e-017
LeftArm  -24.3653 9.69751 -81.9875
LeftForeArm  20.9413 -32.4233 -5.88807
LeftHand  -0.636082 -0.956357 11.7689
RightShoulder  -4.96962e-017 0 -2.36833e-017
RightArm  -39.6684 -18.7921 54.6378
RightForeArm  39.7718 18.2867 1.9252
RightHand  -0.138608 -4.19345 -12.1065
LeftUpLeg  -46.9955 23.0224 1.8549
LeftLeg  91.5181 0.578285 14.7422
LeftFoot  -0.246634 -0.000662831 -0.146347
LeftToes  -28.1592 1.31378e-006 1.14341e-007
